<svg width="28" height="24" viewBox="0 0 28 24" fill="none" xmlns="http://www.w3.org/2000/svg">
<g id="Frame" clip-path="url(#clip0_870_2067)">
<g id="Group">
<g id="Group_2">
<g id="Group_3">
<path id="Vector" d="M4.29167 18.7692C4.45417 18.4205 4.58333 18.0677 4.675 17.7067C1.87083 16.0369 0 13.0051 0 9.54256C0 4.27077 4.3375 0 9.69167 0C15.0458 0 19.3833 4.27077 19.3833 9.54256C19.3833 14.8144 15.0458 19.0851 9.69167 19.0851C8.9625 19.0851 8.25 19.0031 7.5625 18.8554C6.3 20.4021 4.34167 21.2308 2.35833 21.0913C3.16667 20.5087 3.84167 19.7251 4.29167 18.7692Z" fill="#FED100"/>
</g>
<g id="Group_4">
<g id="Group_5">
<path id="Vector_2" d="M1.7249 10.4778C1.7249 5.82547 5.55824 2.05111 10.2832 2.05111C13.0457 2.05111 15.5041 3.33931 17.0666 5.34136C15.5874 2.81418 12.8207 1.11572 9.64573 1.11572C4.92074 1.11572 1.0874 4.89008 1.0874 9.54239C1.0874 11.4747 1.7499 13.2593 2.8624 14.6788C2.14157 13.4398 1.7249 12.0039 1.7249 10.4778Z" fill="#FFDF5A"/>
</g>
</g>
<g id="Group_6">
<path id="Vector_3" d="M19.3792 9.24322C19.3792 9.23911 19.3792 9.23091 19.3792 9.2268C19.2625 5.92834 17.45 3.05655 14.7709 1.43604C15.7334 2.91706 16.2917 4.67706 16.2917 6.56834C16.2917 11.8319 11.9584 16.0945 6.6167 16.0945C4.76253 16.0945 3.02503 15.5776 1.5542 14.6873C2.34587 15.9017 3.40837 16.9273 4.6542 17.6822C4.65003 17.6863 4.65003 17.6904 4.64587 17.6945C4.6542 17.6986 4.66253 17.7068 4.67087 17.7109C4.5792 18.0678 4.45003 18.4248 4.28753 18.7735C3.83753 19.7294 3.16253 20.513 2.35837 21.0914C4.3417 21.2309 6.30003 20.4022 7.56253 18.8555C7.5667 18.8555 7.57087 18.8555 7.57503 18.8596V18.8555C8.26253 19.0073 8.97503 19.0894 9.7042 19.0894C11.5792 19.0894 13.4334 18.5437 15.0042 17.5304C16.3875 16.636 17.5292 15.393 18.2917 13.9489C18.8917 12.8124 19.2542 11.5612 19.3542 10.2812C19.3834 9.94475 19.3917 9.58373 19.3792 9.24322Z" fill="#FCC200"/>
</g>
</g>
<g id="Group_7">
<g id="Group_8">
<path id="Vector_4" d="M23.7084 21.6657C23.5459 21.317 23.4167 20.9642 23.325 20.6032C26.1292 18.9293 28 15.8975 28 12.439C28 7.16725 23.6625 2.89648 18.3084 2.89648C12.9542 2.89648 8.6167 7.16725 8.6167 12.439C8.6167 17.7108 12.9542 21.9816 18.3084 21.9816C19.0375 21.9816 19.75 21.8996 20.4375 21.7519C21.7 23.2985 23.6584 24.1273 25.6417 23.9878C24.8334 23.4052 24.1584 22.6216 23.7084 21.6657Z" fill="#FCC200"/>
</g>
<g id="Group_9">
<path id="Vector_5" d="M23.7084 21.6657C23.5459 21.321 23.4167 20.9682 23.3251 20.6113C26.1292 18.9416 28.0001 15.9139 28.0001 12.4554C28.0001 9.02155 26.1542 6.01027 23.3876 4.33643C24.3501 5.81745 24.9084 7.57745 24.9084 9.46873C24.9084 14.7323 20.5751 18.9949 15.2334 18.9949C13.3792 18.9949 11.6417 18.478 10.1709 17.5877C11.8917 20.2298 14.9001 21.9816 18.3251 21.9816C19.0501 21.9816 19.7584 21.9036 20.4376 21.7518C21.7001 23.2985 23.6584 24.1231 25.6376 23.9836C24.8334 23.4051 24.1584 22.6216 23.7084 21.6657Z" fill="#E2A700"/>
</g>
<g id="Group_10">
<g id="Group_11">
<path id="Vector_6" d="M10.3416 13.3743C10.3416 8.72195 14.1749 4.94759 18.8999 4.94759C21.6624 4.94759 24.1208 6.2358 25.6833 8.23785C24.2041 5.71067 21.4374 4.01221 18.2624 4.01221C13.5374 4.01221 9.7041 7.78657 9.7041 12.4389C9.7041 14.3712 10.3666 16.1558 11.4791 17.5753C10.7583 16.3363 10.3416 14.9045 10.3416 13.3743Z" fill="#FFDF5A"/>
</g>
</g>
</g>
<g id="Group_12">
<path id="Vector_7" d="M14.7416 13.5548C15.2432 13.5548 15.6499 13.1544 15.6499 12.6605C15.6499 12.1665 15.2432 11.7661 14.7416 11.7661C14.2399 11.7661 13.8333 12.1665 13.8333 12.6605C13.8333 13.1544 14.2399 13.5548 14.7416 13.5548Z" fill="white"/>
</g>
<g id="Group_13">
<path id="Vector_8" d="M18.3082 13.5548C18.8099 13.5548 19.2166 13.1544 19.2166 12.6605C19.2166 12.1665 18.8099 11.7661 18.3082 11.7661C17.8066 11.7661 17.3999 12.1665 17.3999 12.6605C17.3999 13.1544 17.8066 13.5548 18.3082 13.5548Z" fill="white"/>
</g>
<g id="Group_14">
<path id="Vector_9" d="M21.7875 13.5548C22.2891 13.5548 22.6958 13.1544 22.6958 12.6605C22.6958 12.1665 22.2891 11.7661 21.7875 11.7661C21.2858 11.7661 20.8792 12.1665 20.8792 12.6605C20.8792 13.1544 21.2858 13.5548 21.7875 13.5548Z" fill="white"/>
</g>
</g>
</g>
<defs>
<clipPath id="clip0_870_2067">
<rect width="28" height="24" fill="white"/>
</clipPath>
</defs>
</svg>
