<svg width="28" height="29" viewBox="0 0 28 29" fill="none" xmlns="http://www.w3.org/2000/svg">
<g id="Frame" clip-path="url(#clip0_870_1939)">
<path id="Vector" d="M3.3894 10.3359H2.50391V20.4891H3.3894V10.3359Z" fill="black"/>
<path id="Vector_2" d="M25.2825 10.3359H24.397V20.5195H25.2825V10.3359Z" fill="black"/>
<path id="Vector_3" d="M28.0022 21.0671V20.1855L0.124331 20.1855V21.0671L28.0022 21.0671Z" fill="black"/>
<path id="Vector_4" d="M28.0022 23.195V22.3135L0.124331 22.3135V23.195L28.0022 23.195Z" fill="black"/>
<path id="Vector_5" d="M1.03808 20.1846H0.152588V23.1941H1.03808V20.1846Z" fill="black"/>
<path id="Vector_6" d="M28 20.1846H27.1145V23.1941H28V20.1846Z" fill="black"/>
<path id="Vector_7" d="M3.3894 23.2246H2.50391V28.1492H3.3894V23.2246Z" fill="black"/>
<path id="Vector_8" d="M25.2825 23.0723H24.397V27.9969H25.2825V23.0723Z" fill="black"/>
<path id="Vector_9" d="M0 28.3924C0 28.1492 0.21374 27.9668 0.458015 27.9668H27.4199C27.6641 27.9668 27.8779 28.1796 27.8779 28.4228C27.8779 28.666 27.6641 28.8788 27.4199 28.8788H0.458015C0.21374 28.8484 0 28.6356 0 28.3924Z" fill="black"/>
<path id="Vector_10" d="M27.8784 7.57981V6.69824L0.000551224 6.69824V7.57981L27.8784 7.57981Z" fill="black"/>
<path id="Vector_11" d="M4.00012 9.8495C2.68714 9.8495 1.64897 8.81594 1.64897 7.50879H0.671875C0.671875 9.33272 2.16806 10.8527 4.03065 10.8527C5.86271 10.8527 7.38943 9.36312 7.38943 7.50879H6.3818C6.35126 8.81594 5.3131 9.8495 4.00012 9.8495Z" fill="black"/>
<path id="Vector_12" d="M10.6869 9.8495C9.37393 9.8495 8.33576 8.81594 8.33576 7.50879H7.32812C7.32812 9.33272 8.82431 10.8527 10.6869 10.8527C12.519 10.8527 14.0457 9.36312 14.0457 7.50879H13.038C13.038 8.81594 11.9999 9.8495 10.6869 9.8495Z" fill="black"/>
<path id="Vector_13" d="M17.4047 9.8495C16.0917 9.8495 15.0535 8.81594 15.0535 7.50879H14.0459C14.0459 9.33272 15.5421 10.8527 17.4047 10.8527C19.2367 10.8527 20.7635 9.36312 20.7635 7.50879H19.7558C19.7558 8.81594 18.6871 9.8495 17.4047 9.8495Z" fill="black"/>
<path id="Vector_14" d="M24.0917 9.8495C22.7787 9.8495 21.7405 8.81594 21.7405 7.50879H20.7634C20.7634 9.33272 22.2596 10.8527 24.1222 10.8527C25.9543 10.8527 27.481 9.36312 27.481 7.50879H26.4734C26.4428 8.81594 25.4046 9.8495 24.0917 9.8495Z" fill="black"/>
<path id="Vector_15" d="M23.7412 0.876682V-0.00488281L4.16869 -0.00488281V0.876682L23.7412 0.876682Z" fill="black"/>
<path id="Vector_16" d="M4.87483 0.506835L4.12305 0.0410156L-0.00734704 6.64802L0.744439 7.11384L4.87483 0.506835Z" fill="black"/>
<path id="Vector_17" d="M27.1042 7.16113L27.856 6.69531L23.7256 0.0883112L22.9738 0.55413L27.1042 7.16113Z" fill="black"/>
<path id="Vector_18" d="M6.87028 16.2021C5.70998 16.2021 4.79395 17.1141 4.79395 18.2693C4.79395 19.4244 5.70998 20.3364 6.87028 20.3364C8.03059 20.3364 8.94662 19.4244 8.94662 18.2693C8.94662 17.1141 8.00005 16.2021 6.87028 16.2021ZM6.87028 19.546C6.16799 19.546 5.58784 18.9684 5.58784 18.2693C5.58784 17.5701 6.16799 16.9925 6.87028 16.9925C7.57257 16.9925 8.15272 17.5701 8.15272 18.2693C8.15272 18.9684 7.57257 19.546 6.87028 19.546Z" fill="black"/>
<path id="Vector_19" d="M10.8703 16.2021C9.70998 16.2021 8.79395 17.1141 8.79395 18.2693C8.79395 19.4244 9.70998 20.3364 10.8703 20.3364C12.0306 20.3364 12.9466 19.4244 12.9466 18.2693C12.9466 17.1141 12.0306 16.2021 10.8703 16.2021ZM10.8703 19.546C10.168 19.546 9.58784 18.9684 9.58784 18.2693C9.58784 17.5701 10.168 16.9925 10.8703 16.9925C11.5726 16.9925 12.1527 17.5701 12.1527 18.2693C12.1527 18.9684 11.6031 19.546 10.8703 19.546Z" fill="black"/>
<path id="Vector_20" d="M15.0534 16.2021C13.8931 16.2021 12.9771 17.1141 12.9771 18.2693C12.9771 19.4244 13.8931 20.3364 15.0534 20.3364C16.2137 20.3364 17.1297 19.4244 17.1297 18.2693C17.1297 17.1141 16.1832 16.2021 15.0534 16.2021ZM15.0534 19.546C14.3511 19.546 13.7709 18.9684 13.7709 18.2693C13.7709 17.5701 14.3511 16.9925 15.0534 16.9925C15.7557 16.9925 16.3358 17.5701 16.3358 18.2693C16.3358 18.9684 15.7557 19.546 15.0534 19.546Z" fill="black"/>
<path id="Vector_21" d="M8.79386 13.5576C7.63356 13.5576 6.71753 14.4696 6.71753 15.6247C6.71753 16.7799 7.63356 17.6919 8.79386 17.6919C9.95417 17.6919 10.8702 16.7799 10.8702 15.6247C10.8702 14.5 9.95417 13.5576 8.79386 13.5576ZM8.79386 16.9015C8.09157 16.9015 7.51142 16.3239 7.51142 15.6247C7.51142 14.9256 8.09157 14.348 8.79386 14.348C9.49616 14.348 10.0763 14.9256 10.0763 15.6247C10.0763 16.3543 9.52669 16.9015 8.79386 16.9015Z" fill="black"/>
<path id="Vector_22" d="M12.6413 13.2539C11.481 13.2539 10.5649 14.1659 10.5649 15.321C10.5649 16.4762 11.481 17.3881 12.6413 17.3881C13.8016 17.3881 14.7176 16.4762 14.7176 15.321C14.7481 14.1963 13.8016 13.2539 12.6413 13.2539ZM12.6413 16.5978C11.939 16.5978 11.3588 16.0202 11.3588 15.321C11.3588 14.6219 11.939 14.0443 12.6413 14.0443C13.3436 14.0443 13.9237 14.6219 13.9237 15.321C13.9543 16.0506 13.3741 16.5978 12.6413 16.5978Z" fill="black"/>
<path id="Vector_23" d="M22.9746 16.2726V15.2998H18.4555V16.2726H22.9746Z" fill="black"/>
<path id="Vector_24" d="M18.4914 20.6611H19.4685V16.1621H18.4914V20.6611Z" fill="black"/>
<path id="Vector_25" d="M22.6145 20.6846H23.5916V15.304H22.6145V20.6846Z" fill="black"/>
<g id="Group">
<path id="Vector_26" d="M21.4352 17.0839C21.6795 17.0839 21.8627 17.0839 21.9237 17.0839H21.9543L22.1375 16.6583L20.0306 16.6279L19.8474 17.0839C19.8474 17.0839 20.1528 17.0839 20.5497 17.0839C20.7024 17.1751 20.794 17.2967 20.855 17.3879L20.0306 17.3575L19.8474 17.8439C19.8474 17.8439 20.336 17.8439 20.8245 17.8439C20.7024 18.0263 20.5192 18.1479 20.5192 18.1479L19.939 18.1175V18.6343L21.0688 19.8502H21.8627L20.6108 18.5431C20.6108 18.5431 21.3436 18.7254 21.5879 17.9655C21.5879 17.9351 21.6184 17.8743 21.6184 17.8439C21.7711 17.8439 21.8932 17.8439 21.9237 17.8439H21.9543L22.1375 17.4183H21.6184C21.5573 17.2663 21.4963 17.1751 21.4352 17.0839Z" fill="#070705"/>
</g>
</g>
<defs>
<clipPath id="clip0_870_1939">
<rect width="28" height="28.8485" fill="white"/>
</clipPath>
</defs>
</svg>
