<svg width="26" height="26" viewBox="0 0 26 26" fill="none" xmlns="http://www.w3.org/2000/svg">
<path id="Vector" fill-rule="evenodd" clip-rule="evenodd" d="M21.7134 12.7396C21.2727 12.7396 20.9923 13.02 20.9923 13.5008V24.3174H15.624V19.9507C15.624 19.5501 15.3436 19.1895 14.943 19.1895H11.0971C10.6564 19.1895 10.2958 19.5901 10.2958 19.9507V24.3174H5.04777V13.9014C5.04777 13.4206 4.68721 13.1402 4.32666 13.1402C3.88598 13.1402 3.60555 13.4206 3.60555 13.9014V25.1988C3.60555 25.5994 3.88598 25.9599 4.32666 25.9599H11.1371C11.4977 25.9599 11.8182 25.5593 11.8182 25.1988V20.7519H14.1818V25.2388C14.1818 25.6394 14.5424 26 14.9831 26H21.7134C22.074 26 22.4345 25.5994 22.4345 25.2388V13.5408C22.4345 13.0601 22.074 12.7396 21.7134 12.7396ZM4.28659 1.3621C4.64715 1.3621 4.96764 1.76271 4.96764 2.24345V8.17257L12.4592 0.280431C12.5794 0.0801233 12.8197 0 13.02 0C13.1803 0 13.3405 0.0801233 13.4607 0.280431C17.8274 4.84746 20.8721 8.05239 25.7596 13.3405C26.0401 13.621 26.0401 14.2219 25.7596 14.5023C25.5994 14.5824 25.4792 14.7026 25.2388 14.7026C24.9985 14.7026 24.7982 14.6225 24.718 14.5023L13.02 1.96302L1.24191 14.302C0.961479 14.7026 0.520801 14.7026 0.200308 14.302C0.0801233 14.2219 0 14.0216 0 13.8213C0 13.621 0.0801233 13.4206 0.24037 13.2203L3.64561 9.61479V2.24345C3.60555 1.76271 3.92604 1.3621 4.28659 1.3621Z" fill="white"/>
</svg>
